<svg xmlns="http://www.w3.org/2000/svg" viewBox="0 0 24 24" style="enable-background:new 0 0 24 24" xml:space="preserve"><style>.st0{fill:#fff}.st1{fill:#b07dfb}.st2{fill:none;stroke:#84e;stroke-linecap:round;stroke-linejoin:round;stroke-miterlimit:10}</style><g id="Duotone"><path class="st0" d="m4.8 5.5-3.3 4 3.3 4H7l4.5-4-4.5-4zM7.5 19.5l4 2.5 4-2.5v-6.4l-4-3.6-4 3.6zM18.3 5.5H16l-4.5 4 4.5 4h2.3l3.2-4z"/><path class="st1" d="M7.5 12.5h8v3h-8zM15.5 19.5l-4 2.5-4-2.5v-1h8zM14.7 6.7l-3.2-2.9-3.2 2.9 3.2 2.8zM18.3 5.5l-2.3 8h2.3l3.2-4z"/><path class="st1" d="m7 5.5-2.5 8H7l4.5-4z"/><path class="st2" d="m7 5.5 4.5 4-4.5 4H4.8l-3.3-4 3.3-4z"/><path class="st2" d="M8.3 6.7 14 1.5h1"/><path class="st2" d="M14.7 6.7 9 1.5H8"/><path class="st2" d="m14.7 6.7-3.2-2.9h0L8.3 6.7l3.2 2.8zM7.5 13.1v6.4l4 2.5 4-2.5v-6.4M11.5 23.5V22M7.5 18.5h8M7.5 15.5h8M8.1 12.5h6.8"/><path class="st2" d="m16 5.5-4.5 4 4.5 4h2.3l3.2-4-3.2-4z"/></g><path style="fill:none" d="M0 0h24v24H0z" id="Frames-24px"/></svg>