<svg xmlns="http://www.w3.org/2000/svg" viewBox="0 0 24 24" style="enable-background:new 0 0 24 24" xml:space="preserve"><style>.st1{fill:#b07dfb}.st2{fill:none;stroke:#84e;stroke-linecap:round;stroke-linejoin:round;stroke-miterlimit:10}</style><g id="Duotone"><path style="fill:#fff" d="m23.5.5-4 5L16 7l-4-1.5L8 7 4.5 5.5l-4-5 1 6 4 4-4 1.5L4 14.5l1.8-1.8.7 5.5-1 .3 1.5 5h2.5L12 22l2.5 1.5H17l1.5-5-1-.3.7-5.5 1.8 1.8 2.5-2.5-4-1.5 4-4z"/><path class="st1" d="m6.5 18.2 5.5-1.7 5.8 1.8-.3-.1.7-5.3L15 9l-3-1-3 1-3.2 3.9.7 5.3zM5.5 18.5l3.5 3 3-2 3 2 3.5-3-1.5 5h-2.5L12 22l-2.5 1.5H7z"/><path class="st2" d="m6.5 18.2-1-7.7L8 7l4-1.5L16 7l2.5 3.5-1 7.7"/><path class="st2" d="M17 23.5h-2.5L12 22l-2.5 1.5H7l-1.5-5 6.5-2 6.5 2zM8 7 4.5 5.5l-4-5 1 6 4 4-4 1.5L4 14.5l1.8-1.8M16 7l3.5-1.5 4-5-1 6-4 4 4 1.5-2.5 2.5-1.8-1.8M9.5 12.5v-1M10.5 19.5v1M14.5 12.5v-1M13.5 19.5v1"/></g><path style="fill:none" d="M0 0h24v24H0z" id="Frames-24px"/></svg>