<svg xmlns="http://www.w3.org/2000/svg" viewBox="0 0 24 24" style="enable-background:new 0 0 24 24" xml:space="preserve"><style>.st2{fill:none;stroke:#84e;stroke-linecap:round;stroke-linejoin:round;stroke-miterlimit:10}</style><g id="Duotone"><path style="fill:#fff" d="M16.5 13.5v-1l-5-2-5 2v1l-3-1 .5 2 2.5 1v1l2 2v3l3 2 3-2v-3l2-2v-1l2.5-1 .5-2z"/><path style="fill:#b07dfb" d="M6.5 16.5h3l1 1.5v2.5l1 1 1-1V18l1-1.5h3l-2 2v3l-3 2-3-2v-3z"/><path class="st2" d="M6.5 12.5 2 8 .5 2.5M14.5 21.5l-3 2-3-2v-3l-2-2v-4l5-2 5 2v4l-2 2zM9.5 14.5v1M13.5 14.5v1M11.5 21.5v2M6.5 13.5l-3-1 .5 2 2.5 1M16.5 13.5l3-1-.5 2-2.5 1"/><path class="st2" d="M5.5 11.5v-3l1.5-2M2 8l1.5-3.5 3-2M4.5 10.5H1l-.5-1M16.5 12.5 21 8l1.5-5.5"/><path class="st2" d="M17.5 11.5v-3l-1.5-2M21 8l-1.5-3.5-3-2M18.5 10.5H22l.5-1"/></g><path style="fill:none" d="M0 0h24v24H0z" id="Frames-24px"/></svg>