<svg xmlns="http://www.w3.org/2000/svg" viewBox="0 0 24 24" style="enable-background:new 0 0 24 24" xml:space="preserve"><style>.st1{fill:#b07dfb}.st2{fill:none;stroke:#84e;stroke-linecap:round;stroke-linejoin:round;stroke-miterlimit:10}</style><g id="Duotone"><path style="fill:#fff" d="m8 4.5-4.5-3V12l-2 7 10 3.5 10-3.5-2-7V1.5l-4.5 3z"/><path class="st1" d="M1.5 19 4 17.5l7.5 2.5 8.5-2.5 1.5 1.5-10 3.5zM8 4.5l1.5 4 2-4M11.5 4.5l2 4 1.5-4"/><path class="st2" d="m8 4.5 1.5 4 2-4M11.5 4.5l2 4 1.5-4M11.5 22.5v-5M9 15.5l2.5 2 2.5-2M8.5 10.5v1M14.5 10.5v1M17.5 15.5l5-2M18 17.5l4.5-1"/><path class="st2" d="m8 4.5-4.5-3V12l-2 7 10 3.5 10-3.5-2-7V1.5l-4.5 3zM5.5 15.5l-5-2M5 17.5l-4.5-1"/></g><path style="fill:none" d="M0 0h24v24H0z" id="Frames-24px"/></svg>