<svg xmlns="http://www.w3.org/2000/svg" viewBox="0 0 24 24" style="enable-background:new 0 0 24 24" xml:space="preserve"><style>.st1{fill:#b07dfb}.st2{fill:none;stroke:#84e;stroke-linecap:round;stroke-linejoin:round;stroke-miterlimit:10}</style><g id="Duotone"><path style="fill:#fff" d="m13.5 7.5.5-1 2-.5 1 2-1 1.5 1.5 4.5-2 1v3l-4 2-4-2v-3l-2-1L7 9.5 6 8l1-2 2 .5.5 1z"/><path class="st1" d="M9.5 13.5h4l-2 2.5z"/><path class="st1" d="m21.5 3.5-4 1.5L19 .5 12.5 2l-1 2L10 2 4 .5 5.5 5l-4-1.5 2 4-2 6 6 8 4 2 4-2 6-8-2-6 2-4zm-6 11.5v3l-4 2-4-2v-3l-2-1L7 9.5 6 8l1-2 2 .5.5 1h4l.5-1 2-.5 1 2-1 1.5 1.5 4.5-2 1z"/><path class="st2" d="m13.5 7.5.5-1 2-.5 1 2-1 1.5 1.5 4.5-2 1v3l-4 2-4-2v-3l-2-1L7 9.5 6 8l1-2 2 .5.5 1z"/><path class="st2" d="m11.5 4 1-2L19 .5 17.5 5l4-1.5-2 4 2 6-6 8-4 2-4-2-6-8 2-6-2-4 4 1.5L4 .5 10 2zM9.5 10.5v1M13.5 10.5v1"/><path class="st2" d="M9.5 13.5h4l-2 2.5zM11.5 16v1.5"/></g><path style="fill:none" d="M0 0h24v24H0z" id="Frames-24px"/></svg>