<svg xmlns="http://www.w3.org/2000/svg" viewBox="0 0 24 24" style="enable-background:new 0 0 24 24" xml:space="preserve"><style>.st0{fill:#fff}.st2{fill:none;stroke:#84e;stroke-linecap:round;stroke-linejoin:round;stroke-miterlimit:10}</style><g id="Duotone"><path class="st0" d="m18.5 5.5-.5-3h-3l-3.5-2-3.5 2H5l-.5 3-3 1L2 10l2.5 1 1-.5v10l6 3 6-3v-10l1 .5 2.5-1 .5-4-3-.5z"/><path class="st0" d="M5.5 13.5h-2l-2 3h2l2-1M17.5 13.5h2l2 3h-2l-2-1"/><path style="fill:#b07dfb" d="m17.5 10.5-1-.5-2.5 1-2.5-1L9 11l-2.5-1-1 .5V13l1-.5 2.5 1 2.5-1 2.5 1 2.5-1 1 .5z"/><path class="st2" d="M17.5 10.5v10l-6 3-6-3v-10"/><path class="st2" d="m11.5 10 2.5 1 2.5-1 2 1 2.5-1 .5-4-3-.5-.5-3h-3l-3.5-2-3.5 2H5l-.5 3-3 1L2 10l2.5 1 2-1L9 11zM8.5 15.5v-1M14.5 15.5v-1M5.5 13.5h-2l-2 3h2l2-1M17.5 13.5h2l2 3h-2l-2-1M10.5 18.5v1M12.5 18.5v1"/></g><path style="fill:none" d="M0 0h24v24H0z" id="Frames-24px"/></svg>